<svg id="Layer_1" data-name="Layer 1" xmlns="http://www.w3.org/2000/svg" xmlns:xlink="http://www.w3.org/1999/xlink" viewBox="0 0 157.08 347.75"><defs><style>.cls-1,.cls-4{fill:#f1f2f2;}.cls-2{fill:#e6e7e8;}.cls-10,.cls-11,.cls-2,.cls-3,.cls-4,.cls-5,.cls-6,.cls-7,.cls-8,.cls-9{stroke:#231f20;stroke-miterlimit:10;}.cls-13,.cls-3{fill:none;}.cls-5{fill:#d1d3d4;}.cls-6{fill:url(#linear-gradient);}.cls-7{fill:url(#linear-gradient-2);}.cls-8{fill:#fff;}.cls-9{fill:#a7a9ac;}.cls-10{fill:url(#linear-gradient-3);}.cls-11{fill:url(#linear-gradient-4);}.cls-12{font-size:3px;fill:#231f20;font-family:NuevaStd-Bold, NuevaStd Bold;font-weight:700;}</style><linearGradient id="linear-gradient" x1="346.29" y1="252.78" x2="446.68" y2="252.78" gradientTransform="matrix(1, 0.01, -0.01, 1, 2.63, -2.64)" gradientUnits="userSpaceOnUse"><stop offset="0" stop-color="#14327d"/><stop offset="0.48" stop-color="#27aae1"/><stop offset="1" stop-color="#14327d"/></linearGradient><linearGradient id="linear-gradient-2" x1="346.29" y1="272.58" x2="446.68" y2="272.58" gradientTransform="matrix(1, 0.01, -0.01, 1, 2.63, -2.64)" gradientUnits="userSpaceOnUse"><stop offset="0" stop-color="#14327d"/><stop offset="0.43" stop-color="#27aae1"/><stop offset="0.51" stop-color="#b0c6e7"/><stop offset="0.57" stop-color="#27aae1"/><stop offset="1" stop-color="#14327d"/></linearGradient><linearGradient id="linear-gradient-3" x1="325.89" y1="529.51" x2="471.8" y2="529.51" gradientUnits="userSpaceOnUse"><stop offset="0.02" stop-color="#bcbec0"/><stop offset="0.33" stop-color="#bec0c2"/><stop offset="0.44" stop-color="#c5c7c8"/><stop offset="0.52" stop-color="#d0d2d3"/><stop offset="0.52" stop-color="#d1d3d4"/><stop offset="0.53" stop-color="#d0d2d3"/><stop offset="0.6" stop-color="#c5c7c8"/><stop offset="0.71" stop-color="#bec0c2"/><stop offset="1" stop-color="#bcbec0"/></linearGradient><linearGradient id="linear-gradient-4" x1="325.87" y1="490.25" x2="472.03" y2="490.25" gradientUnits="userSpaceOnUse"><stop offset="0.02" stop-color="#d1d3d4"/><stop offset="0.33" stop-color="#d3d5d6"/><stop offset="0.44" stop-color="#dadbdc"/><stop offset="0.52" stop-color="#e6e7e8"/><stop offset="0.52" stop-color="#e6e7e8"/><stop offset="0.53" stop-color="#e5e6e7"/><stop offset="0.6" stop-color="#dadbdc"/><stop offset="0.71" stop-color="#d3d5d6"/><stop offset="1" stop-color="#d1d3d4"/></linearGradient></defs><title>bottle needle</title><path class="cls-1" d="M472,469.89s-2.37-7.81-20.47-11-37.91-5.89-55.29-5.37-44,1.56-58.39,7.09c-9,3.45-11.37,6.08-11.91,7.56-.1-6.45-.55-33.68-.74-38.58-.23-5.58-1.11-43.7-1.11-43.7s2.52-16.36,3.67-19.21a21.93,21.93,0,0,1,2.81-4.93h0l.28.17.34.21.32.18c.32.19.67.38,1,.57a71.45,71.45,0,0,0,9.6,4.15c.43.16.87.31,1.32.46l1,.35,1.33.44.15,0,1.22.4,1.32.41c18.84,5.73,77,5.82,93.81,0a139.55,139.55,0,0,0,21.05-5.29c.56-.18,1.12-.36,1.69-.56h0s-1.12.36,1.08,3.17,4.2,4.85,4.44,14,1,54.46,1,54.46Z" transform="translate(-319.89 -220.73)"/><path class="cls-2" d="M325.84,494.55v0a5.07,5.07,0,0,1,0-.55,3.57,3.57,0,0,1,.06-.65c0,.22,0,.44,0,.65s0,.57,0,.85A2.33,2.33,0,0,1,325.84,494.55Z" transform="translate(-319.89 -220.73)"/><path class="cls-2" d="M471.83,495c0,.07,0,.13,0,.2a1.21,1.21,0,0,1,0,.19v-.65a.13.13,0,0,1,0,.06v0A1.09,1.09,0,0,1,471.83,495Z" transform="translate(-319.89 -220.73)"/><path class="cls-3" d="M325.84,494.55v0a5.07,5.07,0,0,1,0-.55,3.57,3.57,0,0,1,.06-.65c0,.22,0,.44,0,.65s0,.57,0,.85A2.33,2.33,0,0,1,325.84,494.55Z" transform="translate(-319.89 -220.73)"/><path class="cls-3" d="M471.82,494.77a1.09,1.09,0,0,1,0,.18c0,.07,0,.13,0,.2a1.21,1.21,0,0,1,0,.19v-.65l.22-20.78c0,7.37,0,14.42-.21,20.84Z" transform="translate(-319.89 -220.73)"/><path class="cls-3" d="M472,469.89c-1.33-8.84-33.43-16.12-72.88-16.38-40.34-.27-73.1,6.9-73.16,16l-.1,23.79c-.42-27.35-.62-62.71-.62-62.71s-1.79-41.9-1-46.16,2.06-17.82,6.07-22.89l.28.18.29.17a3.79,3.79,0,0,0,.34.2l.32.19c.32.19.67.38,1,.57a71.26,71.26,0,0,0,9.6,4.16l1.32.45c.33.12.67.24,1,.35l1.32.44.14,0,1.23.4c.43.13.87.26,1.32.41,18.84,5.72,77,5.82,93.81,0a186.6,186.6,0,0,0,22.76-5.85,5.73,5.73,0,0,0,1.08,3.17c1.27,1.58,3.71,3.47,4.27,10C470.82,380.91,471.72,429.38,472,469.89Z" transform="translate(-319.89 -220.73)"/><path class="cls-3" d="M472,471v-.52c0-.19,0-.39,0-.59a3.92,3.92,0,0,1,.05.59A2.29,2.29,0,0,1,472,471Z" transform="translate(-319.89 -220.73)"/><path class="cls-4" d="M470.55,361.36c-1.89.7-3.72,1.35-5.48,1.93-.57.2-1.13.38-1.69.56a139.55,139.55,0,0,1-21.05,5.29c-16.86,5.79-75,5.7-93.81,0l-1.32-.41-1.22-.4-.15,0-1.33-.44-1-.35c-.45-.15-.89-.3-1.32-.46a71.45,71.45,0,0,1-9.6-4.15c-.37-.19-.72-.38-1-.57l-.32-.18-.34-.21-.28-.17h0l-.27-.17-.09-.05-.3-.2-.32-.21c-.56-.37-1-.72-1.38-1l-.13-.1c-.25-.21-.45-.4-.62-.55l-.15-.14-.08-.09-.11-.1-.33-.4,0,0h0a8.49,8.49,0,0,1,.05-7.67c2.09-4.12,27.71-41.14,27.71-41.14s1.08-2.47,2.18-5.65c1.51-4.32,3.07-9.93,2.07-12.42h0l.08,0,.13,0,1.16.35.07,0a58.55,58.55,0,0,0,6,1.33h0c7.25,1.53,18.67,3.45,29.33,3.22,1.41,0,2.82-.08,4.22-.14h.25l2.21-.09.33,0,1.86-.1,2.18-.14,4.11-.32,1.09-.1,4.22-.44c.82-.1,1.62-.19,2.41-.3l1.24-.16c1.4-.19,2.77-.39,4.1-.61l.65-.11c1.15-.19,2.28-.39,3.36-.61l.44-.08h0l1-.22,1.23-.26c.67-.15,1.33-.3,2-.46s.94-.23,1.41-.36l.92-.25a13.8,13.8,0,0,0,4.15-1.32,53.88,53.88,0,0,0,.67,9.63c.79,4.89,2.46,10.68,6,14.92,7.31,8.88,23.26,34.65,23.26,34.65S473.67,357.55,470.55,361.36Z" transform="translate(-319.89 -220.73)"/><path class="cls-3" d="M366.24,293.53a58.55,58.55,0,0,1-6-1.33l-.07,0-1.16-.35.46.12h0C360.61,292.25,363,292.85,366.24,293.53Z" transform="translate(-319.89 -220.73)"/><path class="cls-3" d="M439,290.65a13.8,13.8,0,0,1-4.15,1.32C436.36,291.55,437.75,291.11,439,290.65Z" transform="translate(-319.89 -220.73)"/><path class="cls-5" d="M443.48,285.06a10.35,10.35,0,0,1-2.85,4.29c-.29.26-.61.53-1,.81l-.64.49c-1.26.46-2.65.9-4.15,1.32-.94.21-2,.41-3.13.61l-.84.15L429,293h0l-1.32.2-.9.14c-1.83.27-3.74.52-5.64.76l-1,.12-.47.05-1,.13-.86.1-.76.09-.58.06c-2.66.3-5.18.55-7.3.73l-.45,0c-1.61.13-3,.22-4,.25h-1.2c-3.33-.14-23.09.26-37.3-2.18h0c-3.23-.68-5.63-1.28-6.75-1.58h0l-.65-.22c.18-.14.87-.74,0-.88s-3.82-2.42-3.82-2.42a7.76,7.76,0,0,1-.8-1.17,4.66,4.66,0,0,1-.5-3.91c.42-1.08,1.44-2.13,3.51-3a385.49,385.49,0,0,0,39.27,3.76,170.19,170.19,0,0,0,34.46-1.86,56,56,0,0,0,10.7-2.69,10,10,0,0,1,1.58,2.32A3.78,3.78,0,0,1,443.48,285.06Z" transform="translate(-319.89 -220.73)"/><path class="cls-3" d="M358.81,291.73l.65.22-.46-.12-.13,0-.08,0h0Z" transform="translate(-319.89 -220.73)"/><path class="cls-3" d="M366.24,293.53a58.55,58.55,0,0,1-6-1.33l-.07,0-1.16-.35.46.12h0C360.61,292.25,363,292.85,366.24,293.53Z" transform="translate(-319.89 -220.73)"/><path class="cls-3" d="M439,290.65a13.8,13.8,0,0,1-4.15,1.32C436.36,291.55,437.75,291.11,439,290.65Z" transform="translate(-319.89 -220.73)"/><path class="cls-3" d="M366.24,293.53a58.55,58.55,0,0,1-6-1.33l-.07,0-1.16-.35.46.12h0C360.61,292.25,363,292.85,366.24,293.53Z" transform="translate(-319.89 -220.73)"/><path class="cls-3" d="M434.86,292l-.92.25c-.47.13-.93.25-1.41.36s-1.29.31-2,.46l-1.23.26-1,.22h0l-.44.08c-1.08.21-2.21.41-3.36.61l-.65.11c-1.33.21-2.7.42-4.1.61l-1.24.16-2.41.3-4.22.44-1.09.1-4.11.32-2.18.14-1.86.1-.33,0-2.21.09h-.25c-1.4.06-2.81.1-4.22.14-10.66.23-22.08-1.69-29.33-3.22,14.21,2.44,34,2,37.3,2.18h1.2c1,0,2.34-.12,4-.25l.45,0c2.12-.18,4.64-.43,7.3-.73l.58-.06.76-.09.86-.1,1-.13.47-.05,1-.12c1.9-.24,3.81-.49,5.64-.76l.9-.14L429,293h0l1.89-.31.84-.15C432.87,292.38,433.92,292.18,434.86,292Z" transform="translate(-319.89 -220.73)"/><path class="cls-3" d="M439,290.65a13.8,13.8,0,0,1-4.15,1.32C436.36,291.55,437.75,291.11,439,290.65Z" transform="translate(-319.89 -220.73)"/><path class="cls-6" d="M447.47,276.84a10.2,10.2,0,0,1-5.88,2.76c-1.21.14-5.5,1.25-10.7,2.69a170.19,170.19,0,0,1-34.46,1.86,385.49,385.49,0,0,1-39.27-3.76s-10.1-2.84-10.08-5.1l.07-10.62s1.5-3.93,2.77-3.23l.22-31.76a2.42,2.42,0,0,1,.35-1c.85-1.47,3.74-4.28,13.56-5.84,13.67-2.17,35-1.64,39.14-1.51s28.51,1,35.37,4.56,6.26,4.86,6.26,4.86l-.19,30.09.33.29c.78.72,2.67,2.57,2.59,3.67C447.44,266.22,447.47,276.84,447.47,276.84Z" transform="translate(-319.89 -220.73)"/><ellipse class="cls-2" cx="397.59" cy="227.64" rx="4.23" ry="28.56" transform="translate(-152.57 402.98) rotate(-89.62)"/><path class="cls-3" d="M444.82,230.8c0,4-21.23,5-47.38,4.8s-47-2.82-46.95-6.87" transform="translate(-319.89 -220.73)"/><path class="cls-7" d="M447.47,276.84a10.2,10.2,0,0,1-5.88,2.76,56,56,0,0,1-10.7,2.69,170.19,170.19,0,0,1-34.46,1.86,385.49,385.49,0,0,1-39.27-3.76s-10.1-2.84-10.08-5.1l.07-10.62s1.5-3.93,2.77-3.23l0,4.76a172.9,172.9,0,0,0,47.48,7.36c27.15.47,47.29-5.62,47.55-6.51l0-5.87c.78.72,2.67,2.57,2.59,3.67C447.44,266.22,447.47,276.84,447.47,276.84Z" transform="translate(-319.89 -220.73)"/><path class="cls-5" d="M332.08,544.69a34.59,34.59,0,0,1-4.9-5.37s-4.67-28.49-4.92-35.87c0-1.1-.1-4.5-.19-9.5-.5-28.54-1.68-109.1-1.68-109.1s.41-18.29,6.37-26.22v0l0,0c.05.07.15.2.32.4l.1.11.09.08.14.14c.17.16.38.34.63.55l.13.1a16.62,16.62,0,0,0,1.38,1l.32.21c.09.06.2.14.31.2l.08.05c-4,5.07-5.31,18.61-6.07,22.89s1,46.16,1,46.16.2,35.36.62,62.71v0a3.57,3.57,0,0,0-.06.65,5.07,5.07,0,0,0,0,.55v0a2.33,2.33,0,0,0,.05.28h0c0,1.18,0,2.35.06,3.49.11,6.26.23,11.9.36,16.35C327,538.13,331.78,544.33,332.08,544.69Z" transform="translate(-319.89 -220.73)"/><path class="cls-5" d="M325.84,494.55v0a5.07,5.07,0,0,1,0-.55,3.57,3.57,0,0,1,.06-.65c0,.22,0,.44,0,.65s0,.57,0,.85A2.33,2.33,0,0,1,325.84,494.55Z" transform="translate(-319.89 -220.73)"/><path class="cls-5" d="M328.82,353.49c-.64,1.61,1.64,3,2.66,5.17a2,2,0,0,1-1.18,2.89l-.08-.05c-.11-.06-.22-.14-.31-.2l-.32-.21a16.62,16.62,0,0,1-1.38-1l-.13-.1c-.25-.21-.46-.39-.63-.55l-.14-.14-.09-.08-.1-.11c-.17-.2-.27-.33-.32-.4l0,0v0a8.48,8.48,0,0,1,.05-7.67c2.1-4.11,27.71-41.13,27.71-41.13s1.08-2.48,2.18-5.65c1.51-4.32,3.08-9.93,2.07-12.42l0,0,.65.23h0l.67.21.07,0a51.3,51.3,0,0,0,.55,8.07c.57,2.6-9.86,18.7-9.86,18.7S329.46,351.87,328.82,353.49Z" transform="translate(-319.89 -220.73)"/><path class="cls-5" d="M476,459.64c-.33,8.43-.57,22.55-1.23,36.46-.82,17.22-2.29,34.11-5.32,39.44,0,0-.74,1.74-1.94,4,1-5.93,3.11-24.1,3.11-24.1.61-5.33,1-12.2,1.23-20v-.07a1.21,1.21,0,0,0,0-.19c0-.07,0-.13,0-.2a1.09,1.09,0,0,0,0-.18v0c.17-6.42.24-13.47.21-20.84v-.17c0-.9,0-1.81,0-2.72h0a2.29,2.29,0,0,0,.05-.52,3.92,3.92,0,0,0-.05-.59h0c-.29-40.51-1.19-89-1.57-93.47-.56-6.49-3-8.38-4.27-10a5.73,5.73,0,0,1-1.08-3.17c2.27-.74,3-1,5.46-1.93,0,0,6,5.35,5.92,20.1S476.66,440.76,476,459.64Z" transform="translate(-319.89 -220.73)"/><path class="cls-2" d="M468.91,349.85s4.77,7.7,1.64,11.51c-2.5.93-3.19,1.19-5.46,1.93a8.79,8.79,0,0,1,.36-3.16c.6-2.16-2.73-9.25-3.31-11s-16.45-25.48-23-34.65-7.43-21.61-7.43-21.61v-.27c.64-.1,2-.42,2.62-.52l.84-.15a24.31,24.31,0,0,0,3.82-1.26,52.62,52.62,0,0,0,.67,9.62c.79,4.9,2.46,10.69,6,14.93C453,324.07,468.91,349.85,468.91,349.85Z" transform="translate(-319.89 -220.73)"/><path class="cls-2" d="M471.83,495c0,.07,0,.13,0,.2v-.38A1.09,1.09,0,0,1,471.83,495Z" transform="translate(-319.89 -220.73)"/><path class="cls-2" d="M472,471v-.52c0-.19,0-.39,0-.59a3.92,3.92,0,0,1,.05.59A2.29,2.29,0,0,1,472,471Z" transform="translate(-319.89 -220.73)"/><line class="cls-8" x1="31.59" y1="9.49" x2="31.35" y2="45.9"/><line class="cls-8" x1="34.52" y1="10.85" x2="34.28" y2="46.74"/><line class="cls-8" x1="120.19" y1="12.8" x2="119.95" y2="48.34"/><line class="cls-8" x1="123.59" y1="11.69" x2="123.35" y2="47.23"/><line class="cls-8" x1="37.56" y1="11.69" x2="37.32" y2="47.54"/><line class="cls-8" x1="38.31" y1="11.91" x2="38.07" y2="47.78"/><line class="cls-8" x1="115.1" y1="13.82" x2="114.86" y2="49.67"/><line class="cls-8" x1="115.86" y1="13.6" x2="115.62" y2="49.47"/><line class="cls-8" x1="41.9" y1="12.53" x2="41.66" y2="48.38"/><line class="cls-8" x1="42.65" y1="12.75" x2="42.42" y2="48.62"/><line class="cls-8" x1="47.28" y1="13.3" x2="47.04" y2="49.59"/><line class="cls-8" x1="48.03" y1="13.52" x2="47.79" y2="49.83"/><line class="cls-8" x1="108.31" y1="14.42" x2="108.07" y2="50.71"/><line class="cls-8" x1="109.07" y1="14.31" x2="108.83" y2="50.61"/><line class="cls-8" x1="53.55" y1="13.61" x2="53.3" y2="50.63"/><line class="cls-8" x1="54.45" y1="13.84" x2="54.2" y2="50.86"/><line class="cls-8" x1="60.18" y1="14.48" x2="59.93" y2="51.49"/><line class="cls-8" x1="61.08" y1="14.49" x2="60.83" y2="51.73"/><line class="cls-8" x1="100.99" y1="14.64" x2="100.74" y2="51.65"/><line class="cls-8" x1="101.89" y1="14.64" x2="101.64" y2="51.89"/><line class="cls-8" x1="67.45" y1="14.8" x2="67.21" y2="52.33"/><line class="cls-8" x1="68.82" y1="14.81" x2="68.57" y2="52.57"/><line class="cls-8" x1="76.28" y1="14.86" x2="76.03" y2="52.79"/><line class="cls-8" x1="77.65" y1="14.87" x2="77.4" y2="52.63"/><line class="cls-8" x1="84.99" y1="14.83" x2="84.73" y2="52.76"/><line class="cls-8" x1="86.35" y1="14.84" x2="86.1" y2="52.6"/><line class="cls-8" x1="93.24" y1="14.77" x2="92.99" y2="52.7"/><line class="cls-8" x1="94.61" y1="14.78" x2="94.36" y2="52.54"/><path class="cls-8" d="M335.55,411.2s6.66,3.88,24.47,6.21" transform="translate(-319.89 -220.73)"/><path class="cls-8" d="M336.57,447.4s6.66,3.88,24.46,6.21" transform="translate(-319.89 -220.73)"/><path class="cls-9" d="M472,471v-.52c0-.19,0-.39,0-.59a3.92,3.92,0,0,1,.05.59A2.29,2.29,0,0,1,472,471Z" transform="translate(-319.89 -220.73)"/><path class="cls-9" d="M469.4,535.54a28.08,28.08,0,0,1-1.38,5.63c-.08.26-.14.41-.14.41-6.28,13.53-15.29,14.36-26.83,19.89S399.27,568,399.27,568s-27.44-.63-43.62-5.9A70,70,0,0,1,329,545.61l-.08-.08c-.73-.73-1.73-6.21-1.73-6.21a34.59,34.59,0,0,0,4.9,5.37v0a69,69,0,0,0,9.53,7.34,63.75,63.75,0,0,0,13.16,6.48c14.57,5.12,34.63,5.1,44.21,5.61s33.37-3,41-5,14.66-7,19.84-10.05c3.07-1.81,5.84-6.2,7.59-9.49h0C468.66,537.28,469.4,535.54,469.4,535.54Z" transform="translate(-319.89 -220.73)"/><path class="cls-10" d="M471.8,495.41c-.22,7.84-.62,14.71-1.23,20,0,0-2.16,18.17-3.11,24.1h0c-1.75,3.29-4.52,7.68-7.59,9.49-5.18,3.07-12.16,8-19.84,10.05s-31.45,5.54-41,5-29.64-.49-44.21-5.61a63.75,63.75,0,0,1-13.16-6.48,69,69,0,0,1-9.53-7.34v0c-.3-.36-5.06-6.56-5.77-30-.13-4.45-.25-10.09-.36-16.35,0-1.14,0-2.31-.06-3.49,1.93,8.73,33.78,15.86,72.82,16.12C438.35,511.23,470.66,504.31,471.8,495.41Z" transform="translate(-319.89 -220.73)"/><path class="cls-11" d="M472,473.74v.17l-.22,20.78v.72c-1.14,8.9-33.45,15.82-73.09,15.55-39-.26-70.89-7.39-72.82-16.12h0c0-.28,0-.56,0-.85s0-.43,0-.65v0l.1-23.79c0,4.85,9.19,9.26,23.91,12.39,12.94,2.74,30.14,4.47,49,4.59s36.06-1.38,49-3.93h0c14.24-2.83,23.38-6.92,24.05-11.55C472,471.93,472,472.84,472,473.74Z" transform="translate(-319.89 -220.73)"/><path class="cls-3" d="M326,498.33l-.17-.23.06-3.55v0l0-1.2c0,.22,0,.44,0,.65s0,.57,0,.85h0C325.91,496,325.93,497.19,326,498.33Z" transform="translate(-319.89 -220.73)"/><path class="cls-2" d="M472,470.49V471h0c-.67,4.63-9.81,8.72-24.05,11.55h0c-13,2.55-30.18,4.06-49,3.93s-36.09-1.85-49-4.59c-14.72-3.13-23.94-7.54-23.91-12.39.06-9.11,32.82-16.28,73.16-16,39.45.26,71.55,7.54,72.88,16.38h0C472,470.1,472,470.3,472,470.49Z" transform="translate(-319.89 -220.73)"/><path class="cls-3" d="M472.06,470.49l0,3.25c0-.9,0-1.81,0-2.72h0v-.52Z" transform="translate(-319.89 -220.73)"/><path class="cls-8" d="M336.09,519.76s6.66,3.88,24.46,6.21" transform="translate(-319.89 -220.73)"/><path class="cls-8" d="M336.33,483.58s6.66,3.88,24.46,6.21" transform="translate(-319.89 -220.73)"/><text class="cls-12" transform="translate(27.82 45.06)">S</text><path class="cls-13" d="M326,468.15c0,.88,0,1.37,0,1.37A1.5,1.5,0,0,1,326,468.15Z" transform="translate(-319.89 -220.73)"/></svg>